# xmcd
#
# Track frame offsets:
#	150
#	16072
#	33312
#	44402
#	55947
#	72147
#	88115
#	100427
#	114457
#	125302
#	133822
#	146535
#	154942
#	169265
#	184357
#	198370
#
# Disc length: 2918 seconds
#
# Revision: 1
# Processed by: cddbd v1.4PL0 Copyright (c) Steve Scherf et al.
# Submitted via: audiograbber 1.80
#
DISCID=e30b6410
DTITLE=Billie Jo Spears - The Country Collection
DYEAR=1900
DGENRE=
TTITLE0=Blanket on the ground
TTITLE1=For the good times
TTITLE2=Here you come, again
TTITLE3=Silver threads and golden needles
TTITLE4=Fire and rain
TTITLE5=Queen of the silver dollar
TTITLE6=What I've got in mind
TTITLE7=Bluebayou
TTITLE8=All I have to do is dream
TTITLE9=Blue, blue, day
TTITLE10='57 Chevrolet
TTITLE11=Rocky top
TTITLE12=Cryin' time
TTITLE13=It's a heartache
TTITLE14=I'll never love this way again
TTITLE15=Just the way you are
EXTD=
EXTT0=
EXTT1=
EXTT2=
EXTT3=
EXTT4=
EXTT5=
EXTT6=
EXTT7=
EXTT8=
EXTT9=
EXTT10=
EXTT11=
EXTT12=
EXTT13=
EXTT14=
EXTT15=
PLAYORDER=
